<svg fill="none" height="72" viewBox="0 0 72 72" width="72" xmlns="http://www.w3.org/2000/svg"><rect fill="#fff" height="72" rx="36" width="72"/><g clip-rule="evenodd" fill-rule="evenodd"><path d="m52.823 36.2976c0 5.7166-2.456 10.8594-6.3729 14.4312v-20.3973h5.4448c.6025 1.8796.9281 3.8841.9281 5.9661z" fill="#8aecb9"/><path d="m13.9172 36.2976c0-10.7035 8.6769-19.3804 19.3804-19.3804 8.0054 0 14.8772 4.8538 17.8329 11.7791h-5.4939-.8217v.8216 22.3681c-3.2199 2.3829-7.204 3.792-11.5173 3.792-10.7035 0-19.3804-8.6769-19.3804-19.3804zm30.8977 17.9178c-3.3205 2.1388-7.274 3.3798-11.5173 3.3798-11.7623 0-21.2976-9.5353-21.2976-21.2976s9.5353-21.2976 21.2976-21.2976c9.0844 0 16.8403 5.6877 19.901 13.6963h5.9973.8216v.8216 27.1187.8216h-.8216-13.5593-.8217v-.8216zm8.9357-23.8758h4.6236v25.4753h-11.916v-2.7715c4.9551-3.8996 8.137-9.9511 8.137-16.7458 0-2.0681-.2948-4.0673-.8446-5.958zm-2.0057 0c.6058 1.8771.9331 3.8793.9331 5.958 0 5.6229-2.3947 10.6866-6.2198 14.2267v-20.1847z" fill="#0c193d"/></g></svg>