<svg fill="none" xmlns="http://www.w3.org/2000/svg" viewBox="0 0 72 72"><path d="M69.943 36C69.943 17.254 54.746 2.057 36 2.057S2.057 17.254 2.057 36 17.254 69.943 36 69.943 69.943 54.746 69.943 36z" fill="#20220D"/><path fill-rule="evenodd" clip-rule="evenodd" d="M36 3.857c17.752 0 32.143 14.391 32.143 32.143 0 17.752-14.391 32.143-32.143 32.143C18.248 68.143 3.857 53.752 3.857 36 3.857 18.248 18.248 3.857 36 3.857zM36 0c19.882 0 36 16.118 36 36S55.882 72 36 72 0 55.882 0 36 16.118 0 36 0z" fill="#D8E165"/><path d="M36 27.223c.992 0 1.944.17 2.828.483v3.102a5.657 5.657 0 00-8.486 4.9V60c-.965-.227-1.91-.51-2.828-.846V35.708c0-4.686 3.8-8.485 8.486-8.485z" fill="#FBFBE1"/><path d="M22.89 56.886c.436.274.881.534 1.335.781a11.958 11.958 0 01-.054-1.13V35.708c0-6.532 5.296-11.828 11.829-11.828.975 0 1.922.118 2.828.34V22.9c-.91-.2-1.857-.306-2.828-.306-7.243 0-13.114 5.872-13.114 13.114v20.829c0 .117.001.233.004.35z" fill="#FBFBE1"/><path d="M38.828 19.755A16.296 16.296 0 0036 19.508c-8.947 0-16.2 7.253-16.2 16.2v18.885a24.833 24.833 0 01-1.286-1.202V35.708c0-9.657 7.829-17.485 17.486-17.485.963 0 1.908.078 2.828.227v1.305zM36 53.194c-.963 0-1.908-.078-2.829-.227v-1.305c.919.162 1.864.246 2.829.246 8.947 0 16.2-7.253 16.2-16.2V17.966c0-.214-.004-.427-.012-.638.447.389.88.793 1.298 1.213v17.167c0 9.657-7.829 17.486-17.486 17.486z" fill="#FBFBE1"/><path d="M36 48.823c-.971 0-1.918-.106-2.829-.306v-1.32c.907.222 1.854.34 2.829.34 6.533 0 11.828-5.296 11.828-11.829V14.88c0-.2-.005-.398-.014-.595.442.241.875.496 1.3.763v20.66c0 7.243-5.871 13.115-13.114 13.115z" fill="#FBFBE1"/><path d="M36 44.194c-.992 0-1.944-.17-2.829-.483V40.61a5.657 5.657 0 008.486-4.9V11.93c.966.227 1.91.51 2.829.846v22.931c0 4.687-3.8 8.486-8.486 8.486z" fill="#FBFBE1"/></svg>