<svg fill="none" height="73" viewBox="0 0 72 73" width="72" xmlns="http://www.w3.org/2000/svg"><rect fill="#7856ff" height="72.4759" rx="36" width="72"/><path clip-rule="evenodd" d="m59.6688 20.7786c-.1374-.1966-.3124-.3642-.5147-.4931s-.4281-.2165-.6643-.258c-.2363-.0415-.4785-.036-.7126.0163s-.4556.1502-.6518.2882l-44.7998 31.3643c.1679.2405.3915.4367.6516.5722.2602.1354.5492.2059.8425.2056l.0018.0018h44.3532c1.0085 0 1.8253-.8187 1.8253-1.8271v-28.8543c-.0057-.3654-.1211-.7206-.3312-1.0196zm-44.7979-.4484c-.2714-.1898-.5892-.3021-.9196-.3251-.3303-.0229-.6607.0445-.9556.1949-.295.1505-.5435.3784-.7189.6592-.1754.2809-.2711.6042-.2768.9353v28.9083l21.3282-17.4712-18.4554-12.9052" fill="#fff" fill-rule="evenodd"/></svg>