<svg fill="none" height="72" viewBox="0 0 72 72" width="72" xmlns="http://www.w3.org/2000/svg"><rect fill="#e51635" height="72" rx="36" width="72"/><g fill="#fff"><path clip-rule="evenodd" d="m27.8883 31.1307c2.3751 0 4.3045 1.9048 4.3489 4.2697.0422 1.378 1.1731 2.4798 2.5589 2.4798 1.3874 0 2.5182-1.1018 2.5611-2.4798h1.7884c-.0413 2.3635-1.9751 4.2691-4.3495 4.2691-2.3742 0-4.306-1.9056-4.3496-4.2691-.0415-1.3764-1.1731-2.4811-2.5582-2.4811-1.3881 0-2.5175 1.1047-2.5597 2.4811h-1.7906c.0436-2.3648 1.9745-4.2697 4.3503-4.2697" fill-rule="evenodd" opacity=".66"/><path clip-rule="evenodd" d="m46.4564 31.1228v4.2776c-.001.0146-.001.0284-.0023.0422-.064 1.3561-1.1861 2.4375-2.5576 2.4375-1.3698 0-2.4892-1.0755-2.5579-2.4288-.0018-.016-.0023-4.3263-.0023-4.3438h-1.7893v4.3351c.0668 2.3454 1.9877 4.2269 4.3496 4.2269 2.3569 0 4.2776-1.8772 4.3483-4.2168 0-.0174.0013-.0355.0013-.0523v-4.2775h-1.7899zm-25.3283-4.1229v12.6485h1.7921l-.0014-12.6484h-1.7907zm31.7463 10.9609c-1.4152 0-2.5634-1.1461-2.5655-2.5604.0436-1.3764 1.2251-2.4811 2.6118-2.4811.9826 0 1.8344.5531 2.2647 1.3649.1675.347.2544.7274.2542 1.1127 0 1.4163-1.1481 2.5639-2.5653 2.5639zm4.3968 1.7058v-1.6099.0363c-.0008-1.2229-.0008-2.7092-.0008-2.7121-.0544-2.3555-1.9804-4.2501-4.3497-4.2501-.4316 0-.8487.0625-1.2428.1794-1.7549.4877-3.0501 2.072-3.1024 3.9674-.0023.0408-.0023.0814-.0035.1228h.0012c.0023 2.3394 1.8999 4.2379 4.2401 4.2379 1.0101 0 1.9388-.3548 2.6686-.9456v.9739zm-29.3829.0029c2.3751 0 4.3046-1.9041 4.349-4.2691.0421-1.3764 1.173-2.4811 2.5589-2.4811 1.3787 0 2.5021 1.0902 2.5596 2.4528l.0014 9.4376h1.7885v-9.4288c-.0529-2.3555-1.9796-4.2501-4.3495-4.2501-2.3742 0-4.3061 1.9047-4.3496 4.2696-.0415 1.378-1.1731 2.4798-2.5583 2.4798-1.3881 0-2.5175-1.1018-2.5596-2.4798h-1.7907c.0436 2.365 1.9746 4.2691 4.3503 4.2691" fill-rule="evenodd"/><path d="m18.3722 34.4019c-.1323-.4447-.3932-.8089-.7835-1.0864-.3903-.2785-.8415-.4187-1.356-.4187-.5597 0-1.0488.1569-1.471.4695-.2639.1955-.5102.5414-.7348 1.0356zm2.0036 1.577h-6.4383c.0938.5691.3415 1.0197.7456 1.3555.4034.3357.9202.5029 1.5452.5029.75 0 1.3918-.2615 1.9317-.7856l1.6875.7936c-.4208.5966-.9259 1.0393-1.5123 1.3235-.5874.287-1.2843.4301-2.0917.4301-1.2537 0-2.2741-.3938-3.0618-1.1861-.7893-.7898-1.1817-1.7797-1.1817-2.9688 0-1.218.3924-2.2296 1.1781-3.0348.7855-.8068 1.771-1.2079 2.9543-1.2079 1.2579 0 2.2805.4011 3.0683 1.2079.7893.8052 1.1817 1.8677 1.1817 3.1889zm38.3184 2.7727v.8473h-.1489v-.8473h-.2711v-.1353h.6889v.1353zm1.157.8473v-.6578l-.2267.4805h-.1091l-.2334-.4805v.6578h-.1481v-.9826h.1481l.2879.6126.2812-.6126h.149v.9826h-.149"/></g></svg>