<svg fill="none" height="72" viewBox="0 0 72 72" width="72" xmlns="http://www.w3.org/2000/svg"><rect fill="#fff" height="72" rx="36" width="72"/><g clip-rule="evenodd" fill-rule="evenodd"><path d="m31.9749 22.6642c1.5476-1.6121 3.7036-2.6132 6.0869-2.6132 3.1682 0 5.9331 1.767 7.4051 4.3902 1.3171-.5883 2.7436-.8915 4.1861-.8898 5.7147 0 10.347 4.6733 10.347 10.4389 0 5.7657-4.6323 10.4389-10.347 10.4389-.6987 0-1.3801-.0698-2.039-.2026-1.2961 2.3114-3.7676 3.8737-6.603 3.8737-1.1869 0-2.3098-.273-3.3088-.7618-1.3145 3.0921-4.3766 5.2591-7.9448 5.2591-3.7157 0-6.8833-2.3518-8.0986-5.6491-.5415.1143-1.0934.1718-1.6468.1717-4.4249.0005-8.012-3.6239-8.012-8.095-.0033-1.4169.3648-2.81 1.0677-4.0403s1.716-2.2549 2.9383-2.9716c-.5071-1.1684-.768-2.4288-.7664-3.7026 0-5.1425 4.1739-9.3107 9.3228-9.3107 1.4343-.0017 2.8496.3282 4.1355.9638 1.2858.6356 2.4073 1.5598 3.277 2.7004z" fill="#00a1e0"/><path d="m18.9526 36.4235.1942-.5391c.031-.0924.1008-.062.1292-.0446.0541.032.0929.0609.1627.1018.5722.3617 1.1024.3654 1.2678.3654.4284 0 .694-.2268.694-.5328v-.0158c0-.3328-.4095-.4588-.8825-.6037l-.1049-.0336c-.6494-.1848-1.3439-.452-1.3439-1.2741v-.0168c0-.7801.6294-1.3245 1.5302-1.3245l.0987-.001c.5292 0 1.0405.1538 1.4111.3785.0336.021.0662.0598.0473.1113l-.1995.5391c-.0352.0919-.1313.031-.1313.031-.3866-.2015-.8145-.3113-1.2504-.3208-.3822 0-.6279.2027-.6279.4777v.0174c0 .3207.421.4577.9093.6168l.0839.0263c.6473.2047 1.3382.4882 1.3382 1.2677v.0163c0 .8426-.6121 1.366-1.5964 1.366-.4835 0-.946-.0746-1.4353-.3344-.0924-.0536-.1837-.0998-.274-.1654-.0095-.0136-.0509-.0299-.021-.1087zm14.4139 0 .1948-.5391c.0283-.0882.1107-.0557.1286-.0446.0535.033.0934.0609.1627.1018.5733.3617 1.1025.3654 1.2694.3654.4268 0 .6929-.2268.6929-.5328v-.0158c0-.3328-.4089-.4588-.8819-.6037l-.105-.0336c-.6504-.1848-1.3449-.452-1.3449-1.2741v-.0168c0-.7801.6299-1.3245 1.5308-1.3245l.0981-.001c.5292 0 1.041.1538 1.4122.3785.0325.021.0656.0598.0472.1113-.0184.0477-.1821.4887-.1995.5391-.0362.0919-.1312.031-.1312.031-.3868-.2016-.8149-.3113-1.251-.3208-.3822 0-.6279.2027-.6279.4777v.0174c0 .3207.4205.4577.9093.6168l.084.0263c.6473.2047 1.3376.4882 1.3376 1.2677v.0163c0 .8426-.6116 1.366-1.5959 1.366-.484 0-.9465-.0746-1.4353-.3344-.0923-.0536-.1837-.0998-.2745-.1654-.0095-.0136-.0509-.0299-.0205-.1087zm10.662-2.535c.0809.2709.1208.5685.1208.883 0 .315-.0399.6116-.1208.8824-.0739.2612-.2008.5044-.3727.7145-.1723.204-.3883.3666-.6321.4756-.2519.1155-.548.1733-.8809.1733-.3328 0-.6299-.0578-.8808-.1733-.2438-.109-.4598-.2716-.6321-.4756-.1718-.2101-.2988-.453-.3732-.7139-.0826-.287-.1232-.5844-.1208-.883 0-.315.0404-.6121.1208-.883.0808-.273.2063-.5134.3727-.714.1727-.2048.3887-.3687.6326-.4798.2514-.1176.547-.1769.8808-.1769.3339 0 .6295.0593.8809.1769.251.1171.4641.2783.6321.4798.1669.2006.2929.441.3727.714zm-.821.883c0-.4762-.0882-.8505-.2636-1.1129-.1732-.2604-.4357-.3864-.8011-.3864-.3653 0-.6257.126-.7968.3864-.1717.2624-.2594.6367-.2594 1.1129 0 .4756.0877.8525.2604 1.1171.1701.2635.4305.3911.7958.3911.3654 0 .6279-.1281.8011-.3911.1743-.2646.2636-.6415.2636-1.1171zm7.571 1.3806.2016.5575c.0262.0683-.0331.0982-.0331.0982-.3113.1207-.7433.2068-1.1638.2068-.7129 0-1.2589-.2052-1.6232-.6105-.3623-.4042-.547-.9538-.547-1.6358 0-.3155.0456-.6142.1349-.8845.0892-.273.2231-.5135.3995-.714.1831-.2061.409-.3699.6619-.4798.2625-.1171.5712-.1759.9156-.1759.2325 0 .4394.0142.6168.0405.1895.0294.442.0976.5486.1391.0194.0073.0735.0336.0514.0971-.0776.2189-.1307.3617-.2026.5612-.0315.085-.0955.0567-.0955.0567-.2704-.0851-.5297-.1239-.8683-.1239-.4069 0-.7124.1354-.9119.4005-.2016.2672-.3144.6174-.316 1.083-.0016.5108.1265.8893.3533 1.1234.2263.2337.5423.3518.9402.3518.1612 0 .3134-.0105.4504-.0321.1355-.0215.2625-.0635.3822-.1102 0 0 .0772-.0289.105.0509zm4.2049-2.4185c.1791.6268.0856 1.1681.0825 1.198-.0069.0714-.0804.0724-.0804.0724l-2.7817-.0021c.0173.4226.1186.7219.3233.925.2011.199.5203.3265.9523.3271.6604.0015.9423-.1313 1.1423-.2053 0 0 .0762-.0273.105.0483l.1811.5097c.0368.0856.0074.1155-.0236.1329-.1743.096-.5969.2756-1.4011.2777-.39.0015-.7297-.0541-1.0095-.1628-.2659-.0985-.5054-.2571-.6998-.4635-.1858-.2025-.3237-.4442-.4037-.7071-.0861-.2882-.1284-.5876-.1254-.8883 0-.315.0404-.6142.1217-.8877.0814-.2756.2079-.5187.3764-.7229.1747-.2084.3937-.3752.641-.4882.2552-.1202.5712-.179.9187-.179.2977 0 .5696.0641.7959.1617.1742.0745.3496.2095.5291.4026.1134.1218.2861.3885.3559.6515zm-2.7665.5812h1.9843c-.0204-.2552-.0703-.4841-.1847-.6562-.1743-.2604-.4148-.4037-.7796-.4037-.3654 0-.6247.1433-.7964.4037-.1123.1721-.1848.3916-.2241.6562zm-19.5155-.5812c.1785.6268.0866 1.1681.0835 1.198-.0074.0714-.0809.0724-.0809.0724l-2.7823-.0021c.0179.4226.1187.7219.3239.925.2011.199.5197.3265.9518.3271.6604.0015.9433-.1313 1.1428-.2053 0 0 .0761-.0273.1045.0483l.1816.5097c.0368.0856.0074.1155-.0231.1329-.1753.096-.5984.2756-1.4016.2777-.3906.0015-.7303-.0541-1.0095-.1628-.266-.0986-.5056-.2572-.7003-.4635-.1853-.2027-.3229-.4443-.4027-.7071-.0867-.288-.1294-.5875-.1265-.8883 0-.315.0409-.6142.1218-.8877.0756-.2639.2038-.5098.3769-.7229.1746-.2082.3934-.375.6405-.4882.2562-.1202.5722-.179.9187-.179.2738-.0006.5449.0544.7969.1617.1742.0745.3496.2095.5286.4026.1134.1218.2861.3885.3554.6515zm-2.7671.5812h1.9854c-.021-.2552-.0709-.4841-.1848-.6562-.1732-.2604-.4147-.4037-.7795-.4037-.3654 0-.6253.1433-.7959.4037-.1134.1721-.1853.3916-.2257.6562zm-4.9063-.1329s.2194.0195.4588.0541v-.1176c0-.3711-.0771-.5459-.2289-.663-.1553-.1186-.3874-.1801-.6877-.1801 0 0-.6772-.0084-1.2126.2825-.0247.0147-.0452.0231-.0452.0231s-.0672.0236-.0913-.0452l-.1969-.5292c-.0304-.0761.0247-.1107.0247-.1107.2504-.1953.8573-.3134.8573-.3134.2463-.0433.4958-.0663.7459-.0688.5554 0 .9854.1291 1.2778.3848.2929.2567.442.6704.442 1.2279l.0016 2.545s.0058.0735-.0641.0903c0 0-.1023.0284-.1942.0499-.0929.0215-.4278.0897-.7013.1359-.2793.0468-.562.0704-.8452.0704-.2704 0-.5182-.0252-.7366-.0751-.2035-.0426-.3962-.1262-.5664-.2457-.1551-.1126-.2796-.2622-.3622-.4352-.0856-.1748-.1286-.3884-.1286-.6352 0-.242.0509-.4577.1491-.6415.0986-.1827.2341-.3375.4042-.4588.1757-.1237.3722-.2149.5801-.2693.2168-.0577.4472-.0877.6856-.0877.1748 0 .3207.0037.4341.0126zm-1.1071 1.955c-.0016-.0005.2493.1969.8158.1622.3979-.0241.7506-.0997.7506-.0997v-1.2652s-.3559-.0583-.7554-.064c-.5664-.0069-.8079.2016-.8063.201-.167.1187-.2483.2945-.2483.5381 0 .1559.0278.2777.084.3628.0351.0561.0504.0771.1596.1648zm23.5472-3.3886c-.0263.0761-.1612.4572-.21.5837-.0179.0483-.0473.0814-.1013.0756 0 0-.1596-.0367-.3056-.0367-.1002 0-.2435.0126-.3727.0525-.1295.0398-.2474.1106-.3433.2063-.1019.0981-.1843.2362-.2441.4095-.0609.1742-.0924.4514-.0924.7296v2.0726c.0001.0111-.0021.0221-.0063.0323-.0041.0103-.0103.0196-.0181.0274-.0078.0079-.0171.0141-.0273.0184-.0103.0042-.0212.0064-.0323.0064h-.7302c-.0112.0002-.0223-.0019-.0327-.006-.0103-.0042-.0198-.0103-.0278-.0181s-.0143-.0171-.0187-.0274-.0068-.0213-.0069-.0325v-4.1498c0-.0467.0341-.084.0808-.084h.7124c.0472 0 .0808.0373.0808.084v.3391c.1066-.1428.2977-.2688.4704-.3465.1732-.0787.367-.1364.7171-.1154.1822.011.4189.0609.4667.0792.0093.0038.0178.0093.025.0164s.0128.0155.0167.0248.0058.0192.0058.0293-.0021.02-.006.0293zm-6.8613-1.923c.0194.0079.0725.0336.0515.0966l-.2137.5843c-.0179.0441-.0294.0704-.1202.0431-.1201-.0378-.2453-.0573-.3712-.0578-.1102 0-.21.0142-.2982.0436-.0882.0282-.1682.0776-.233.1438-.0863.0834-.153.1849-.1953.2971-.1024.294-.1418.6074-.147.6274h.8893c.075 0 .0987.0346.0913.0897l-.1039.5786c-.0168.0839-.0929.0808-.0929.0808h-.9166l-.6263 3.5466c-.0539.3181-.1357.6308-.2446.9345-.0982.2567-.1995.4441-.3623.6231-.1389.1602-.3155.2833-.5139.358-.1927.0709-.4268.1071-.6825.1071-.1217 0-.253-.0026-.4079-.0393-.0862-.0198-.1713-.0446-.2546-.0746-.0341-.0121-.0619-.0556-.042-.1113.0189-.0551.1838-.506.2058-.5654.0284-.0714.1008-.0441.1008-.0441.0494.021.084.0347.1496.0478.0667.0131.1559.0247.2237.0247.1212 0 .2315-.0147.3275-.0473.1155-.0372.1838-.105.2541-.1952.0735-.0951.1334-.2237.1948-.3964.0614-.1748.1176-.4058.1659-.6856l.6236-3.4821h-.6142c-.0735 0-.0987-.0346-.0903-.0903l.1029-.5785c.0163-.084.0945-.0808.0945-.0808h.6305l.0341-.188c.0945-.5585.2819-.9832.5591-1.262.2788-.2808.6751-.4226 1.178-.4226.1439 0 .2709.0095.3785.0289.1055.02.1859.0383.2751.0656zm-12.429 6.0161c0 .0473-.0326.0845-.0798.0845h-.7376c-.0472 0-.0793-.0378-.0793-.084v-5.9389c0-.0456.0326-.0834.0788-.0834h.7381c.0472 0 .0798.0378.0798.0839z" fill="#fff"/></g></svg>