<svg fill="none" height="72" viewBox="0 0 72 72" width="72" xmlns="http://www.w3.org/2000/svg"><rect fill="#ffe01b" height="72" rx="36" width="72"/><g fill="#241c15"><path d="m47.02 34.6817c.3504-.0416.6859-.0438.9947 0 .1787-.4096.2091-1.1152.0485-1.8838-.2384-1.1424-.5616-1.8336-1.2293-1.7258-.6677.1077-.6923.9354-.4533 2.0773.1344.6427.3733 1.192.6394 1.5323z"/><path d="m41.2895 35.5856.0756.0333c.4329.1906.7018.309.8102.1939.0742-.0757.0518-.2202-.0624-.4064-.2357-.3845-.7205-.7749-1.2352-.9941-1.0517-.4528-2.3066-.3024-3.2746.3931-.3195.2341-.6224.5584-.5792.7552.0139.0634.0619.1114.1739.1274.1035.0118.3085-.0529.5835-.1397.425-.1341 1.0173-.321 1.6613-.3605.7482-.0459 1.369.1882 1.8469.3978z"/><path d="m39.1433 36.6278c.2202-.1904.5632-.3958 1.1856-.4939.8565-.1018 1.4853.2976 1.6309.5339.0624.1013.0379.168.0176.1989-.0668.1049-.2103.0888-.5095.055l-.0196-.0022c-.5658-.064-1.137-.1019-2.0026.208 0 0-.3152.1264-.4555.1264-.0405 0-.0741-.0139-.1024-.0389-.0208-.0176-.0469-.0528-.0475-.1136-.001-.1275.1152-.3094.303-.4736z"/><path d="m47.8002 35.7734c-.3429-.0059-.6277.3707-.6357.8416s.264.8565.6069.8624c.3429.0058.6277-.3707.6357-.8416.008-.4704-.264-.8565-.6069-.8624z"/><path d="m45.0852 38.1462c.4224.2074.8875.1258 1.0389-.1819.1515-.3077-.0682-.7259-.4906-.9333-.4224-.2075-.8875-.1259-1.039.1818-.1514.3083.0683.7259.4907.9334z"/><path d="m24.3918 44.2155c.136-.032.2763-.0646.3616.0426l-.0016.0011c.0315.0347.0795.1157.0224.2491-.097.225-.481.5338-1.0304.513-.5648-.0437-1.1936-.4544-1.2789-1.4768-.0421-.505.1488-1.1199.2661-1.4415.2272-.6214.0224-1.2731-.5093-1.6208-.3125-.2048-.6859-.2747-1.0507-.1963-.3584.0773-.6634.288-.8597.5941-.1624.2536-.2616.5699-.315.7402l-.0343.1052c-.1195.3216-.3104.4154-.4395.3984-.0608-.0086-.1451-.0496-.1989-.1968-.1467-.4027-.0277-1.5424.7312-2.3798.481-.5306 1.2352-.8021 1.968-.7093.7632.0971 1.3978.5584 1.7872 1.2997.5168.9846.0565 2.0176-.2187 2.6352l-.0805.1835c-.1723.4096-.1814.7674-.0251 1.0074.12.1846.3339.2923.5861.2971.1179.0016.2251-.0229.32-.0453z"/><path clip-rule="evenodd" d="m56.4501 42.3599c.0034.0122.006.0216.0078.0279v.001c.688 0 1.7685.792 1.7685 2.7029 0 1.9019-.7888 4.056-.9749 4.5339-2.8427 6.8117-9.6266 10.6037-17.7082 10.3637-7.5338-.224-13.9594-4.1995-16.7716-10.68-1.7003.0016-3.4528-.7461-4.7856-1.9269-1.4043-1.2437-2.2704-2.8533-2.4389-4.5328-.1318-1.3072.0293-2.5232.4389-3.5845l-1.5792-1.3381c-7.22609-6.1019 15.3765-31.22546 22.6058-24.9199.0362.032 2.4591 2.4091 2.465 2.4149l1.3435-.5701c6.3407-2.6256 11.4858-1.3579 11.4922 2.8314.0037 2.1782-1.3846 4.7179-3.6085 7.0229.8058.7478 1.4511 1.9168 1.8218 3.2528.3109.9867.3659 1.9888.3941 2.6309.0266.6134.0551 1.79.0717 2.4712.0074.3049.0124.5105.0137.5219l.8928.248c1.7018.4779 2.913 1.1147 3.505 1.736.592.6219.8859 1.2229.9925 1.9285.1003.5691.087 1.5744-.664 2.6981 0 0 .1937.4219.3808 1.0224.1713.549.3002 1.0123.3368 1.1439zm-20.5009-21.7614c-1.976 1.0107-4.1813 2.8107-5.9733 4.8811-.0635.073.0309.177.1093.12 1.5472-1.1254 3.6688-2.1723 6.448-2.8501 3.1136-.7595 6.1104-.4411 7.9413-.0214.0917.0208.1498-.1376.0682-.1834-1.2101-.679-3.0666-1.1398-4.3834-1.1494-.0651-.0005-.1019-.0752-.0629-.1274.2277-.3062.5397-.6091.825-.8278.064-.0496.0251-.1525-.0554-.1477-1.8758.1152-4.0139 1.0133-5.2432 1.8512-.0608.0411-.1392-.0128-.1243-.0848.0955-.4613.3979-1.0699.5547-1.3541.0368-.0672-.0357-.1414-.104-.1062zm10.4229 25.6698c.0058.0602-.0304.1205-.0838.1429 0 0-2.9365 1.3643-7.601-.0784.1296 1.0939 1.1963 1.5845 1.7056 1.7829.6411.2491 1.3435.3648 1.3435.3648 5.7802.9947 11.1839-2.3104 12.4004-3.1429.0912-.0624.152-.0016.0784.1088l-.1189.1696c-1.4891 1.9205-5.4922 4.1445-10.7002 4.144-2.2715-.0006-4.5419-.8006-5.3755-2.0304-1.2933-1.9083-.064-4.6928 2.0907-4.4027l.944.1067c2.6938.3003 6.593-.0773 9.8069-1.569 2.9402-1.3648 4.0506-2.8667 3.8842-4.0827-.0453-.3275-.192-.6709-.5072-.9941-.5285-.5173-1.3664-.92-2.7797-1.3168-.0948-.0266-.1835-.0513-.2674-.0747-.3294-.0917-.5859-.1631-.8579-.2528-.607-.2-.9072-.3605-.975-1.5018-.0298-.4992-.1167-2.2379-.1482-2.9563-.0555-1.2586-.2069-2.9797-1.2747-3.6901-.2778-.1851-.5872-.2741-.9125-.2917-.263-.0124-.4175.0244-.4994.0439-.0173.0041-.0313.0074-.0425.0094-.5768.0974-.9306.3934-1.3474.7421-.0237.0199-.0476.0399-.0718.06-1.3322 1.1099-2.4565 1.2918-3.7071 1.2374-.3897-.0165-.7914-.0559-1.2153-.0976-.389-.0382-.7968-.0783-1.2311-.104l-.5307-.0304c-2.0944-.1072-4.3408 1.7018-4.7141 4.2703-.4169 2.8664 1.1646 4.6222 2.1935 5.7646.2546.2825.4753.5276.6236.7426.0954.1301.2058.3131.2058.4864 0 .2075-.1344.3723-.2661.512v.0011c-2.1365 2.1973-2.8197 5.6879-2.0149 8.5973.1002.3631.2277.7109.3786 1.0426 1.8891 4.4149 7.7504 6.4709 13.4762 4.6005.7675-.2501 1.4934-.56 2.1755-.9184 1.2842-.6293 2.4064-1.4944 3.3312-2.4896 1.5189-1.5877 2.4224-3.3135 2.7733-5.4394.1722-1.1381-.08-1.5781-.424-1.7899-.3643-.224-.8-.1461-.8-.1461s-.1989-1.361-.7616-2.5973c-1.6688 1.3173-3.8176 2.2432-5.4533 2.7125-1.888.5419-4.4427.9584-7.2928.7883-.3105-.0251-.6003-.063-.8686-.0981-1.0983-.1436-1.8358-.2401-2.1522.7877 3.6123 1.3221 7.4357.7562 7.4357.7562.0742-.0074.1403.0464.1478.1206zm-29.6308-8.4373c.8741-1.2704 2.304-2.1899 3.9264-2.5051 2.0656-5.5429 5.5125-10.6506 10.0767-14.1647 3.3872-2.8251 7.04-4.8517 7.04-4.8517s-1.9675-2.2811-2.5616-2.4491c-3.6539-.9877-11.5471 4.456-16.5871 11.648-2.0395 2.9104-4.9584 8.0634-3.5627 10.7141.1723.329 1.1456 1.1727 1.6683 1.6085zm5.9034 9.7098c.2528.0064.5035-.0101.7488-.0523 2.6411-.4501 3.3323-3.3184 2.8971-6.1354-.4912-3.1808-2.6427-4.3018-4.1029-4.3818-.4059-.0214-.7824.0149-1.0939.0778-2.6059.5259-4.0778 2.7424-3.7882 5.6229.2618 2.6059 2.8981 4.8032 5.3391 4.8688z" fill-rule="evenodd"/></g></svg>