<svg fill="none" height="72" viewBox="0 0 72 72" width="72" xmlns="http://www.w3.org/2000/svg"><rect fill="#fff" height="72" rx="36" width="72"/><path d="m17.2218 51.8614c-.0767.076-.1573.1478-.2414.2155v-1.1407h-1.0171v8.879h1.02v-3.2558c1.4682 1.6897 3.1606 1.52 4.2555.8361 1.3418-.8303 1.9166-2.6204 1.4368-4.2727-.7441-2.4337-3.793-3.2699-5.4538-1.2614zm1.8649 5.0371c-1.3418 0-2.1637-1.1494-2.1751-2.586-.0117-1.4367 1.1033-2.6236 2.4395-2.6351 1.3359-.0113 2.3933 1.1178 2.3933 2.6292-.0125 1.441-1.1908 2.5988-2.6317 2.5864h-.0002-.0287z" fill="#7d888e"/><path d="m53.5013 48.8674v2.0114h2.1408v.9195h-2.0862c-.0144.2212-.0373.3821-.0373.5747 0 1.0574.0402 2.1177 0 3.1607-.0633 1.2443.5747 1.5086 1.7239 1.2787.0974-.0266.1934-.0583.2873-.0947.2386.7786.0891 1.0142-.6868 1.1119-1.6176.1924-2.3935-.4915-2.3962-2.1262v-3.862l-.9195-.0431v-.8621l.9136-.0574v-2.0114z" fill="#7d888e"/><path d="m32.402 57.7059h-1.0287v-6.7697h1.0086v1.5632c.7096-1.0718 1.4969-1.7556 2.7556-1.7039v1.0545c-2.0402.3823-2.7383 1.2471-2.7383 3.3619.0028.8073.0028 1.6292.0028 2.494z" fill="#7d888e"/><path d="m41.4502 48.1175v3.9365c-1.7929-1.6062-3.4137-1.7241-4.7871-.4512-1.3734 1.273-1.4943 3.5632-.3331 5.0544.4645.6016 1.1345 1.0107 1.8819 1.1495 1.3015.2615 2.3217-.2472 3.2326-1.3764v1.2556h.9855v-9.5714h-.9798zm-2.4683 8.8242c-1.3418-.0316-2.3819-1.2184-2.3531-2.6925.0287-1.474 1.0315-2.586 2.3935-2.5687 1.362.0171 2.4566 1.1866 2.4366 2.6808-.0115 1.4223-1.1523 2.6091-2.4741 2.5804z" fill="#7d888e"/><path d="m29.5946 52.9476c-.0604-1.0373-.6982-1.7241-1.6924-1.9912-1.2234-.3106-2.5181-.1602-3.6376.4223l.2872.8418c1.204-.4481 1.8418-.5372 2.6291-.4395.8851.1121 1.6695.9568 1.3678 1.9596l-.3103-.066c-1.1494-.2154-2.2845-.342-3.3792.1638-1.0331.4379-1.5153 1.6303-1.0774 2.6633.1541.3634.4105.674.7383.8938.572.3815 1.2583.5531 1.9425.4857.825-.0631 1.5958-.4356 2.1579-1.043l.0489.8621h.9568c0-.1523.0373-.2874.0344-.3967-.0085-1.4567.0202-2.9193-.066-4.356zm-1.9625 3.8043c-.8418.4052-1.701.4654-2.4912-.1205-.5214-.4256-.599-1.193-.1738-1.7144.0778-.0949.1691-.1776.2714-.2454.9611-.444 2.0537-.5126 3.063-.1926.1713.0786.2956.2329.3362.4168.1463.7758-.2726 1.5478-1.0028 1.8476z" fill="#7d888e"/><path d="m47.4183 50.7293c-1.9833-.033-3.6181 1.5482-3.6509 3.5315-.0331 1.9834 1.548 3.6181 3.5314 3.6512 1.9818.0329 3.6158-1.5459 3.651-3.5277v-.023c.0368-1.9643-1.5257-3.5866-3.4901-3.6233-.0014 0-.0027-.0001-.004-.0001zm0 6.2323c-1.3993 0-2.5085-1.1808-2.5027-2.6808.0057-1.5 1.0718-2.6176 2.4913-2.6063 1.4194.0117 2.4912 1.1726 2.4912 2.6408 0 1.4683-1.0891 2.6408-2.4826 2.6463z" fill="#7d888e"/><path d="m31.9498 15.7294c3.2064-3.3565 8.5265-3.4782 11.883-.2719.6273.5993 1.1578 1.2919 1.5732 2.0535 1.3133-.5871 2.7365-.8879 4.175-.8821 5.7543 0 10.419 4.6647 10.419 10.419 0 5.7542-4.6647 10.4189-10.419 10.4189-.6825-.0013-1.3632-.0717-2.0314-.2098-1.3371 2.384-3.8555 3.8624-6.5888 3.8676-1.1425.005-2.2702-.2575-3.2928-.7672-1.8678 4.3792-6.932 6.4151-11.3111 4.5475-2.1768-.9287-3.8761-2.7111-4.6996-4.9295-.5412.1159-1.093.1738-1.6464.1724-4.4685-.0578-8.0442-3.7267-7.9864-8.1952.0364-2.8339 1.5531-5.4424 3.9981-6.8759-.5116-1.1693-.7721-2.4331-.7644-3.7095-.0088-5.1324 4.1446-9.2999 9.2768-9.3086 2.9051-.0049 5.6451 1.349 7.4063 3.6593" fill="#139cd8"/><g fill="#fff"><path d="m18.9736 29.4614c-.0204.0384-.0121.0856.0202.1148.0947.0575.1724.115.2672.1724.4422.232.9376.3441 1.4366.3249.977 0 1.589-.5173 1.589-1.3593v-.0201c0-.7844-.6896-1.0545-1.3417-1.2643l-.0719-.0287c-.48-.1522-.8993-.2873-.8993-.612v-.0201c0-.2672.2499-.4798.6319-.4798.435.0056.8621.1172 1.2444.3246.0397.0283.0947.0193.1234-.02v-.0201c.0202-.0575.1926-.4972.1926-.5374.0117-.0423-.0029-.0877-.0375-.1149-.4285-.2541-.9182-.3862-1.4165-.3823h-.0948c-.8995 0-1.5317.5374-1.5317 1.3218v.0201c0 .8247.6896 1.0919 1.342 1.2644l.0948.0373c.4799.1523.8822.2672.8822.5948v.0202c0 .3075-.2674.5374-.6896.5374-.4481.0041-.8875-.1229-1.2644-.3651-.0776-.0374-.1149-.0776-.1522-.0948-.0397-.0283-.0949-.0193-.1236.02v.0201z"/><path d="m33.3379 29.4614c-.0206.0384-.0123.0856.02.1148.095.0575.1724.115.2674.1724.4422.232.9376.3441 1.4364.3249.977 0 1.5892-.5173 1.5892-1.3593v-.0201c0-.7844-.6896-1.0545-1.342-1.2643l-.069-.0287c-.4799-.1522-.8993-.2873-.8993-.612v-.0201c0-.2672.2498-.4798.6322-.4798.4347.0056.8618.1172 1.2441.3246.0398.0283.0947.0193.1234-.02v-.0201c.0202-.0575.1927-.4972.1927-.5374.0116-.0423-.0029-.0877-.0374-.1149-.4286-.254-.9184-.3861-1.4166-.3823h-.0948c-.8995 0-1.5314.5374-1.5314 1.3218v.0201c0 .8247.6894 1.0919 1.3418 1.2644l.0947.0373c.4799.1523.8822.2672.8822.5948v.0202c0 .3075-.2671.5374-.6896.5374-.4479.0041-.8874-.1229-1.2643-.3651-.0775-.0374-.115-.0776-.1522-.0948-.0398-.0283-.0951-.0193-.1238.02v.0201z"/><path d="m43.9952 26.9329c-.0745-.258-.1985-.499-.3649-.7097-.1761-.2012-.3912-.3644-.6321-.4799-.5647-.2292-1.1967-.2292-1.7614 0-.2411.1154-.4562.2787-.6321.4799-.1737.2059-.2984.4486-.3651.7097-.1523.5771-.1523 1.1842 0 1.7613.0746.258.1985.4989.3651.7097.1759.2012.3911.3644.6321.4799.5647.2293 1.1966.2293 1.7614 0 .2451-.1084.4617-.2729.6321-.4799.1737-.2057.2984-.4484.3649-.7097.0782-.2874.117-.5843.1149-.8821.0035-.298-.0352-.595-.1149-.8821zm-.8246.8792c.0196.3886-.0732.7746-.2671 1.112-.1767.267-.4864.414-.8047.3823-.3162.02-.6204-.1245-.8045-.3823-.3576-.6972-.3576-1.524 0-2.2212.1763-.2668.4861-.4139.8045-.3822.3161-.0202.6204.1243.8047.3822.1963.3365.2892.7232.2671 1.1121"/><path d="m50.7188 29.1941c-.0097-.041-.0506-.0664-.0918-.0574-.1237.0495-.2517.088-.382.1148-.1457.0227-.2926.0353-.4398.0373-.3474.02-.6876-.1048-.9396-.3447-.2582-.3168-.3818-.7222-.3447-1.1292-.0147-.3809.093-.7565.3073-1.0718.219-.2807.5647-.432.9195-.4024.2914-.0047.5819.0341.862.1151.0417.0076.0824-.0171.095-.0576.0774-.1925.1349-.3447.2097-.5544.0112-.0405-.0118-.0826-.0519-.095-.1799-.0627-.3656-.108-.5544-.135-.2031-.0239-.4076-.0364-.612-.0373-.3151-.0056-.628.0531-.9196.1723-.2559.1085-.4847.2723-.6694.4799-.1785.2086-.3151.4496-.4023.7097-.0945.2844-.1401.5827-.1351.8822-.0265.5905.1647 1.1703.5374 1.6293.4275.4323 1.0227.656 1.6292.6118.3995.0048.7964-.0665 1.1695-.2097.031-.0205.0458-.0585.0373-.0947z"/><path d="m54.9142 26.7806c-.0725-.2415-.197-.4641-.3651-.6523-.1455-.1739-.3294-.3116-.5372-.4023-.2555-.1036-.5289-.1554-.8046-.1523-.3152-.0075-.6284.0513-.9195.1724-.244.1105-.4601.2745-.6322.4798-.1718.2163-.3015.4628-.3821.727-.0785.2874-.1171.5842-.1149.8822-.0065.2996.0392.5981.1349.8822.0721.2668.2103.5109.4024.7097.1981.196.4324.3521.6896.4598.323.1244.6692.1764 1.0145.1522.4814.0288.9621-.063 1.3992-.2672.0372-.0202.0576-.0373.02-.135l-.1924-.5173c-.0083-.0337-.0427-.0545-.0766-.0462-.0002 0-.0006.0002-.0011.0004h-.02c-.3623.156-.7554.2276-1.1494.2097-.3481.0144-.6894-.1014-.9568-.3246-.2236-.2528-.3399-.5825-.3247-.9197h2.7784c.0414.0017.076-.0305.0777-.0717 0 0 0 0 0-.0001.0575-.02.1522-.5746-.0372-1.1866zm-2.7556.5746c.0258-.2322.1045-.4552.2298-.6522.1681-.2678.469-.4221.7843-.4023.3141-.0126.6116.1401.7846.4023.1177.1978.1839.422.1924.6522z"/><path d="m32.677 26.7805c-.0725-.2414-.1972-.464-.365-.6522-.1456-.1739-.3294-.3116-.5373-.4023-.2555-.1036-.5291-.1554-.8046-.1523-.3152-.0074-.6284.0513-.9195.1724-.244.1105-.4601.2745-.6322.4798-.1717.2162-.3015.4629-.3821.727-.0785.2875-.117.5842-.1149.8822-.0065.2996.0391.5981.1349.8822.0719.2668.2101.511.4023.7097.1983.196.4325.3521.6896.4598.323.1244.6693.1764 1.0143.1522.4814.0287.9624-.063 1.3995-.2672.0373-.0202.0575-.0373.02-.135l-.2155-.5115c-.0083-.0338-.0425-.0545-.0764-.0461-.0005 0-.0009 0-.0011.0002h-.0202c-.3623.1559-.7552.2277-1.1494.2096-.3482.0147-.6893-.1011-.9568-.3246-.2236-.2527-.34-.5824-.3246-.9194h2.7785c.0412.0015.076-.0306.0774-.0718.0575-.0202.1524-.5747-.0373-1.1867zm-2.7788.5804c.0261-.232.1046-.4551.2299-.6522.168-.2677.4691-.4222.7846-.4023.3138-.0126.6114.1401.7844.4023.1179.1978.1841.4222.1927.6522z"/><path d="m25.0164 27.2202c-.115 0-.2501-.0202-.4396-.0202-.233.0033-.4645.0352-.6896.0948-.2061.0538-.4009.1443-.5747.2673-.1724.1151-.3113.2736-.4023.4597-.0997.1958-.1521.4125-.1524.6322-.0095.2188.0371.4363.1351.6322.0826.1748.2083.3261.365.4395.1729.1208.3684.2058.5745.2499.238.0572.4825.0833.7271.0777.2826.0035.5647-.0225.8419-.0777.2672-.0372.612-.115.7099-.135.0655-.0139.1299-.033.1923-.0574.0411-.0099.0665-.0508.0575-.092v-2.5457c.0387-.4534-.1218-.9014-.4395-1.227-.369-.2761-.8246-.4116-1.2846-.3822-.2511-.0026-.5018.0234-.747.0776-.3026.0532-.5941.157-.8619.3075-.0356.0273-.0443.0771-.0202.115l.1927.5373c.0083.0338.0424.0546.0763.0462.0005 0 .0007-.0002.0011-.0002h.0202c.0144-.0019.0277-.0092.0373-.0201.3744-.1798.7829-.2778 1.1983-.2874.2422-.0168.4837.0436.6894.1725.1525.115.2299.2873.2299.6696v.1149l-.4395-.0374zm-1.0948 1.9654c-.0629-.0455-.1148-.1045-.1523-.1723-.1717-.2976-.1078-.6751.1523-.8995.2359-.16.522-.2286.8045-.1925.2502.0007.4998.02.7471.0575v1.2643c-.2463.0504-.4959.0821-.7471.0948-.2775.0418-.5614-.0119-.8045-.1523z"/><path d="m47.4261 25.7834c.0166-.0341.0025-.0751-.0316-.0919-.149-.0468-.3037-.0729-.4599-.0775-.2424-.0246-.4873.0151-.7096.115-.1786.0765-.3363.1947-.4597.3448v-.3448c-.0027-.0416-.0361-.0748-.0778-.0777h-.747c-.0416.0029-.0748.0361-.0775.0777v4.1548c.0027.0417.0359.0748.0775.0778h.7271c.0416-.003.0748-.0361.0775-.0778v-2.0688c-.0044-.2457.0277-.4906.0949-.7269.0441-.1549.1308-.2942.2498-.4023.0952-.0982.2139-.1704.3449-.2098.1187-.035.2413-.0543.3651-.0574.1035.0013.2065.0138.3073.0373.0467.0051.0889-.0281.0949-.0747.0574-.135.1925-.5172.2299-.5948"/><path d="m40.5673 23.8698-.2673-.0575c-.126-.0239-.2537-.0364-.382-.0374-.4321-.0309-.8572.1225-1.1696.4224-.3036.3587-.4965.798-.5545 1.2643l-.0372.1925h-.6322c-.0456.0015-.0846.0332-.095.0776l-.0947.5747c-.0071.0443.0221.086.066.0948h.6436l-.6322 3.4652c-.0343.2351-.0921.4661-.1723.6898-.0409.144-.1059.2802-.1924.4022-.0598.09-.1477.1579-.2501.1925-.105.0325-.2151.045-.3246.0375-.0575 0-.1523-.02-.2299-.02-.0536-.0108-.1049-.0304-.1522-.0574-.0364-.0117-.0763.0037-.0949.0372-.02.0575-.1924.5173-.2098.5545-.0209.0421-.0043.0932.0373.1149.0817.0315.1652.0573.2502.0777.1318.0297.2671.0422.4023.0373.2348.0043.4687-.0346.6896-.115.199-.0787.3762-.2036.5172-.3648.1584-.1795.2824-.3873.3648-.6122.1066-.3064.1903-.6205.2501-.9394l.6322-3.543h.9078c.0456-.0014.0846-.0332.095-.0776l.0948-.5747c.007-.0442-.0221-.0861-.066-.0948h-.911c.0262-.216.0773-.428.1523-.6322.0383-.1108.1047-.2097.1925-.2873.0673-.0636.1451-.1152.2299-.1522.101-.0231.204-.0357.3076-.0374.0774 0 .1723.0201.2298.0201.0469.004.0926.0167.1349.0373.095.0201.095 0 .115-.0373l.2099-.5747c.02-.0374-.0375-.0574-.0575-.0775"/><path d="m28.1656 29.8837c-.0026.0417-.0358.0748-.0774.0778h-.7271c-.0417-.003-.0748-.0361-.0774-.0778v-5.9306c.0026-.0416.0358-.0748.0774-.0776h.7098c.0417.0028.0748.036.0775.0776v5.9363z"/></g></svg>