<svg fill="none" xmlns="http://www.w3.org/2000/svg" viewBox="0 0 72 72"><rect width="72" height="72" rx="36" fill="#EF171E"/><path d="M11.478 35.81h1.437l1.213 3.198h2.152l-1.496-3.589c.856-.332 1.396-1.196 1.38-2.152a2.43 2.43 0 00-1.047-2.043c-.607-.374-1.346-.39-2.094-.383H9.6v8.167h1.878V35.81zm0-3.531h1.046c.341.016.89-.034 1.214.166.265.174.456.515.44.83.016.375-.15.757-.44.94-.366.207-.798.174-1.213.166h-1.047v-2.102zM22.07 36.3c.017-.84-.116-1.695-.606-2.368-.515-.706-1.387-1.088-2.26-1.105-1.86.017-2.924 1.454-2.924 3.257 0 1.803 1.18 3.066 2.982 3.09 2.078-.024 2.775-1.819 2.759-2.093l-1.604-.166c0 .581-.54.98-1.105.988-.74-.008-1.146-.598-1.155-1.32v-.275h3.914V36.3zm-3.92-1.047c.074-.698.373-1.271 1.154-1.271.756 0 .964.606.989 1.271h-2.144zM26.208 34.763c-.133-.557-.59-.798-1.155-.773-.365-.025-.914.075-.939.499.025 1.155 3.673-.142 3.698 2.592a1.931 1.931 0 01-.831 1.545c-.565.407-1.23.524-1.878.549-1.288-.025-2.476-.457-2.816-1.82l1.545-.224c.108.631.764.822 1.32.822.342-.008 1.073-.124 1.048-.606.025-.383-.332-.449-.665-.499a13.474 13.474 0 01-1.82-.332c-.697-.266-1.18-.89-1.154-1.654-.017-1.495 1.28-2.027 2.592-2.043 1.18.008 1.952.465 2.376 1.595l-1.32.349zM28.36 32.935v8.109h1.761v-2.7h.05c.233.548.781.797 1.38.83 1.76-.024 2.309-1.678 2.317-3.148-.008-.765-.075-1.488-.44-2.152-.424-.681-.997-1.039-1.82-1.047-.764.017-1.246.357-1.545 1.047h-.058v-.939H28.36zm1.761 2.709c.009-.374.009-.748.166-1.047.183-.316.466-.507.831-.499.864-.016.914 1.238.939 1.878-.025.606-.058 1.936-.997 1.927-.282 0-.59-.19-.773-.44-.19-.349-.157-.856-.166-1.271v-.548zM37.075 32.827c-1.828.017-2.858 1.388-2.866 3.14.008 1.762 1.022 3.174 2.866 3.2 1.811-.026 2.95-1.397 2.925-3.15.025-1.77-1.006-3.173-2.925-3.19zm.05 1.163c.382.008.673.166.83.548.15.466.175 1.039.167 1.488.008.756-.033 1.952-1.047 1.927-.98.017-.972-1.462-.997-2.152.025-.69.083-1.803 1.047-1.81zM42.367 32.935v1.047c.374-.773.873-1.147 1.762-1.155.565.008 1.13.191 1.487.665.332.473.332 1.238.332 1.761v3.755h-1.77v-3.257c.009-.606.1-1.512-.772-1.487a.806.806 0 00-.773.44c-.166.333-.19.682-.166 1.047v3.257h-1.77v-6.073h1.67zM50.368 34.763c-.166-.557-.623-.798-1.213-.773-.34-.025-.897.075-.88.499-.009 1.155 3.63-.142 3.639 2.592a1.846 1.846 0 01-.831 1.545c-.54.407-1.205.524-1.878.549-1.27-.025-2.45-.457-2.758-1.82l1.487-.224c.133.631.79.822 1.321.822.357-.008 1.088-.124 1.105-.606-.017-.383-.374-.449-.714-.499-.4-.033-1.404-.216-1.77-.332-.731-.266-1.213-.89-1.213-1.654 0-1.495 1.304-2.027 2.592-2.043 1.196.008 1.977.465 2.376 1.595l-1.263.349z" fill="#fff"/><path d="M55.328 38.626c-.44 1.396-.681 2.518-2.426 2.534l-.83-.108v-1.379l.88.108c.582 0 .806-.183.939-.773l-2.21-6.073h1.927l1.164 3.639 1.105-3.639h1.329l-1.878 5.691zM60.853 34.763c-.141-.557-.598-.798-1.155-.773-.365-.025-.922.075-.938.499.016 1.155 3.663-.142 3.639 2.592a1.775 1.775 0 01-.773 1.545c-.565.407-1.238.524-1.928.549-1.237-.025-2.426-.457-2.758-1.82l1.545-.224c.108.631.765.822 1.33.822.332-.008 1.063-.124 1.047-.606.016-.383-.341-.449-.665-.499a13.017 13.017 0 01-1.82-.332c-.706-.266-1.18-.89-1.163-1.654-.025-1.495 1.28-2.027 2.592-2.043 1.172.008 1.945.465 2.377 1.595l-1.33.349z" fill="#fff"/></svg>