<svg width="32" height="32" viewBox="0 0 32 32" fill="none" xmlns="http://www.w3.org/2000/svg">
<path d="M12.5539 21.5795L6.97437 29.2102C9.4359 30.8513 12.3077 31.8359 15.5077 32V22.5641C14.441 22.482 13.4564 22.1538 12.5539 21.5795Z" fill="#48555C"/>
<path d="M15.5077 9.4359V0C12.3077 0.0820513 9.4359 1.14872 6.97437 2.78974L12.5539 10.4205C13.3744 9.84615 14.441 9.51795 15.5077 9.4359Z" fill="#B2AD4B"/>
<path d="M24.9435 2.78974C22.482 1.14872 19.6102 0.164103 16.4102 0V9.4359C17.4768 9.51795 18.4614 9.84615 19.364 10.4205L24.9435 2.78974Z" fill="#E3B23A"/>
<path d="M9.92823 18.5436L0.902588 21.4154C1.96925 24.2872 3.77438 26.8308 6.15387 28.6359L11.7334 21.0051C10.9949 20.3487 10.3385 19.4461 9.92823 18.5436Z" fill="#4E5C5A"/>
<path d="M11.7334 10.9949L6.15387 3.36414C3.77438 5.25132 1.96925 7.71285 0.902588 10.5846L9.92823 13.5385C10.3385 12.5539 10.9128 11.6513 11.7334 10.9949Z" fill="#9E9540"/>
<path d="M9.4359 16C9.4359 15.5077 9.51795 14.9333 9.6 14.441L0.65641 11.5692C0.246154 12.9641 0 14.441 0 16C0 17.559 0.246154 19.0359 0.65641 20.5128L9.6 17.559C9.51795 17.0666 9.4359 16.5743 9.4359 16Z" fill="#6A7B53"/>
<path d="M20.2666 21.0051L25.8461 28.6359C28.2256 26.7487 30.0307 24.2872 31.0974 21.4154L22.0717 18.4615C21.6615 19.4462 21.0051 20.3487 20.2666 21.0051Z" fill="#D45741"/>
<path d="M16.4922 22.5641V32C19.6101 31.9179 22.564 30.9333 25.0255 29.2102L19.446 21.5795C18.6255 22.1538 17.5589 22.482 16.4922 22.5641Z" fill="#983428"/>
<path d="M31.3435 11.4872L22.3999 14.441C22.564 14.9333 22.564 15.5077 22.564 16C22.564 16.4923 22.482 17.0667 22.3999 17.559L31.3435 20.5128C31.7537 19.118 31.9999 17.641 31.9999 16.0821C31.9999 14.441 31.7537 12.9641 31.3435 11.4872Z" fill="#E7703D"/>
<path d="M22.0717 13.4565L31.0153 10.5026C29.9487 7.63082 28.1435 5.08723 25.7641 3.2821L20.1846 10.9129C21.0051 11.6513 21.6615 12.5539 22.0717 13.4565Z" fill="#F2A738"/>
</svg>
